<svg width="40" height="28" viewBox="0 0 40 28" fill="none" xmlns="http://www.w3.org/2000/svg">
<path d="M16.1668 19.7497L26.1143 13.9997L16.1668 8.24967V19.7497ZM38.3235 4.74217C38.5727 5.64301 38.7452 6.85051 38.8602 8.38384C38.9943 9.91717 39.0518 11.2397 39.0518 12.3897L39.1668 13.9997C39.1668 18.1972 38.8602 21.283 38.3235 23.2572C37.8443 24.9822 36.7327 26.0938 35.0077 26.573C34.1068 26.8222 32.4585 26.9947 29.9285 27.1097C27.4368 27.2438 25.156 27.3013 23.0477 27.3013L20.0002 27.4163C11.9693 27.4163 6.96683 27.1097 4.99266 26.573C3.26766 26.0938 2.156 24.9822 1.67683 23.2572C1.42766 22.3563 1.25516 21.1488 1.14016 19.6155C1.006 18.0822 0.948496 16.7597 0.948496 15.6097L0.833496 13.9997C0.833496 9.80217 1.14016 6.71634 1.67683 4.74217C2.156 3.01717 3.26766 1.90551 4.99266 1.42634C5.8935 1.17717 7.54183 1.00467 10.0718 0.889674C12.5635 0.755508 14.8443 0.698008 16.9527 0.698008L20.0002 0.583008C28.031 0.583008 33.0335 0.889675 35.0077 1.42634C36.7327 1.90551 37.8443 3.01717 38.3235 4.74217Z" fill="#BEB540"/>
</svg>
