<svg width="28" height="28" viewBox="0 0 28 28" fill="none" xmlns="http://www.w3.org/2000/svg">
<path d="M25.8665 0.666992H2.13317C1.74419 0.666992 1.37113 0.821516 1.09608 1.09657C0.821027 1.37162 0.666504 1.74467 0.666504 2.13366V25.867C0.666504 26.256 0.821027 26.629 1.09608 26.9041C1.37113 27.1791 1.74419 27.3337 2.13317 27.3337H14.9065V17.0003H11.4398V13.0003H14.9065V10.0003C14.8347 9.296 14.9178 8.58449 15.1501 7.91571C15.3824 7.24692 15.7582 6.63705 16.2511 6.12887C16.7441 5.62069 17.3422 5.22651 18.0036 4.97398C18.665 4.72144 19.3737 4.61666 20.0798 4.66699C21.1176 4.66061 22.1549 4.71403 23.1865 4.82699V8.42699H21.0665C19.3865 8.42699 19.0665 9.22699 19.0665 10.387V12.9603H23.0665L22.5465 16.9603H19.0665V27.3337H25.8665C26.0591 27.3337 26.2498 27.2957 26.4278 27.222C26.6057 27.1483 26.7674 27.0403 26.9036 26.9041C27.0398 26.7679 27.1478 26.6062 27.2215 26.4283C27.2952 26.2503 27.3332 26.0596 27.3332 25.867V2.13366C27.3332 1.94105 27.2952 1.75033 27.2215 1.57239C27.1478 1.39445 27.0398 1.23276 26.9036 1.09657C26.7674 0.960376 26.6057 0.852343 26.4278 0.778636C26.2498 0.704929 26.0591 0.666992 25.8665 0.666992Z" fill="#BEB540"/>
</svg>
