<svg width="28" height="28" viewBox="0 0 28 28" fill="none" xmlns="http://www.w3.org/2000/svg">
<path d="M14 9.34C11.42 9.34 9.34 11.44 9.34 14C9.34 16.56 11.44 18.66 14 18.66C16.56 18.66 18.66 16.56 18.66 14C18.66 11.44 16.56 9.34 14 9.34ZM28 14C28 12.06 28 10.16 27.9 8.22C27.8 5.98 27.28 3.98 25.64 2.36C24 0.72 22.02 0.2 19.78 0.0999999C17.84 -9.68575e-08 15.94 0 14 0C12.06 0 10.16 -9.68575e-08 8.22 0.0999999C5.98 0.2 3.98 0.72 2.36 2.36C0.72 4 0.2 5.98 0.0999999 8.22C-9.68575e-08 10.16 0 12.06 0 14C0 15.94 -9.68575e-08 17.84 0.0999999 19.78C0.2 22.02 0.72 24.02 2.36 25.64C4 27.28 5.98 27.8 8.22 27.9C10.16 28 12.06 28 14 28C15.94 28 17.84 28 19.78 27.9C22.02 27.8 24.02 27.28 25.64 25.64C27.28 24 27.8 22.02 27.9 19.78C28.02 17.86 28 15.94 28 14ZM14 21.18C10.02 21.18 6.82 17.98 6.82 14C6.82 10.02 10.02 6.82 14 6.82C17.98 6.82 21.18 10.02 21.18 14C21.18 17.98 17.98 21.18 14 21.18ZM21.48 8.2C20.56 8.2 19.8 7.46 19.8 6.52C19.8 5.58 20.54 4.84 21.48 4.84C22.42 4.84 23.16 5.58 23.16 6.52C23.1651 6.73907 23.1251 6.95685 23.0425 7.15983C22.9599 7.36281 22.8365 7.54667 22.68 7.7C22.5267 7.85655 22.3428 7.97993 22.1398 8.0625C21.9368 8.14507 21.7191 8.18506 21.5 8.18L21.48 8.2Z" fill="#BEB540"/>
</svg>
